<svg xmlns="http://www.w3.org/2000/svg" viewBox="0 0 28.96 28.89"><defs><style>.cls-1{fill:#010101;}</style></defs><title>manage-team</title><g id="Layer_2" data-name="Layer 2"><g id="Layer_2-2" data-name="Layer 2"><path d="M14.48,28.89a13.93,13.93,0,0,1-11.6-5.83A13.62,13.62,0,0,1,.19,12.33a14.12,14.12,0,0,1,8-10.88A13.77,13.77,0,0,1,14.56,0l.95,0A11.77,11.77,0,0,1,18.35.5c.42.12.53.27.45.56a.37.37,0,0,1-.39.33.93.93,0,0,1-.27,0A14.41,14.41,0,0,0,14.47.86,13.9,13.9,0,0,0,13,.94,13.32,13.32,0,0,0,4.71,5,13.55,13.55,0,0,0,3.53,22.46,12.89,12.89,0,0,0,10,27.23a15,15,0,0,0,4.77.82A13.09,13.09,0,0,0,23,25a13.16,13.16,0,0,0,4.93-8.72,13.56,13.56,0,0,0-.67-6.5c-.13-.38-.06-.58.22-.71l.16,0c.18,0,.33.16.44.45a14.43,14.43,0,0,1-5.33,16.81,13.79,13.79,0,0,1-7,2.52C15.29,28.88,14.88,28.89,14.48,28.89Z"/><path d="M24.23,19.4c-.29,0-.41-.18-.43-.56s0-.54,0-.81v-.54a1,1,0,0,0-.91-1.14l-.7-.17a.49.49,0,0,1-.43-.38c0-.19,0-.33.24-.51A2.6,2.6,0,0,0,22.63,12a2.57,2.57,0,0,0-2.25-1.37,2.65,2.65,0,0,0-.87.15,2.59,2.59,0,0,0-1.74,1.86.47.47,0,0,0,.23.6,1.7,1.7,0,0,1,.83,1.49c0,.4,0,.8,0,1.2v.37c0,.34-.14.52-.41.55h0c-.27,0-.46-.25-.47-.57s0-.56,0-.84v-.55a1,1,0,0,0-.84-1.1l-.42-.1-.28-.07c-.31-.07-.46-.2-.51-.42s.07-.31.26-.48a2.84,2.84,0,0,0,1-2,2.68,2.68,0,0,0-.83-1.94,2.56,2.56,0,0,0-1.81-.72,2.63,2.63,0,0,0-2.11,4.22,3.81,3.81,0,0,0,.33.36l.18.17a.5.5,0,0,1,.17.44.5.5,0,0,1-.34.32,4,4,0,0,1-.52.14l-.25.05A1.09,1.09,0,0,0,11,15v1.31c0,.56-.31.57-.41.57h0c-.41,0-.46-.37-.47-.53v-.2a10.24,10.24,0,0,1,.05-1.66,1.53,1.53,0,0,1,.48-1,.72.72,0,0,0,.22-.81,2.6,2.6,0,0,0-2.11-2,2.09,2.09,0,0,0-.43,0,2.62,2.62,0,0,0-2.11,4.19,3.19,3.19,0,0,0,.31.33l.19.2a.51.51,0,0,1,.16.47.49.49,0,0,1-.35.32A4.94,4.94,0,0,1,6,16.3l-.22.05a1.06,1.06,0,0,0-.93,1.14c0,.23,0,.46,0,.69s0,.44,0,.66-.16.56-.41.56S4,19.22,4,18.83V17.25a1.67,1.67,0,0,1,1.13-1.6c.15-.06.26-.13.29-.23a.43.43,0,0,0-.08-.36A3.61,3.61,0,0,1,5.05,12a3.45,3.45,0,0,1,2.26-2,3.37,3.37,0,0,1,1-.17,3.44,3.44,0,0,1,2,.7l.55.44.07-.51a4.35,4.35,0,0,1,.16-.8,3.5,3.5,0,0,1,3.29-2.39h.16A3.49,3.49,0,0,1,17.89,10c.06.26.1.45.29.45a.78.78,0,0,0,.38-.15,3.39,3.39,0,0,1,1.75-.51,3.53,3.53,0,0,1,1.81.53,3.35,3.35,0,0,1,1.69,3.06,3.16,3.16,0,0,1-.5,1.74.45.45,0,0,0-.1.34.45.45,0,0,0,.28.22,1.76,1.76,0,0,1,1.19,1.71c0,.46,0,.93,0,1.4s-.18.65-.43.65Z"/><path class="cls-1" d="M26,6.82a.28.28,0,0,1-.25-.11,21.9,21.9,0,0,0-1.88-2.18c-.16-.16-.08-.37.05-.52a.41.41,0,0,1,.31-.17.27.27,0,0,1,.18.08,10.73,10.73,0,0,1,2,2.33l0,.15a.39.39,0,0,1-.24.38A.64.64,0,0,1,26,6.82Z"/></g></g></svg>