<svg xmlns="http://www.w3.org/2000/svg" viewBox="0 0 20.47 25.94"><title>security</title><g id="Layer_2" data-name="Layer 2"><g id="Layer_2-2" data-name="Layer 2"><path d="M10.25,25.94a.72.72,0,0,1-.26-.07l-.66-.3A19.83,19.83,0,0,1,4.08,22,14,14,0,0,1,.53,16.63,9.59,9.59,0,0,1,0,13.55V3.83A.46.46,0,0,1,.34,3.4L10,.06A.82.82,0,0,1,10.24,0l.12,0a6.81,6.81,0,0,1,.76.26l.4.14,8.61,3a.47.47,0,0,1,.33.43c0,.4,0,.77,0,1.14v7.91c0,.47,0,.93,0,1.39a10.16,10.16,0,0,1-.8,3.14,14.6,14.6,0,0,1-3.83,5.07,19.43,19.43,0,0,1-5.31,3.38l-.14.06ZM6.09,22.55l.33.23c.46.34.91.65,1.36.94A19.36,19.36,0,0,0,10.15,25l.51-.15a20.94,20.94,0,0,0,2.69-1.55l.66-.47.27-.2.27-.22c.42-.35.83-.71,1.21-1.07s.77-.79,1.12-1.19l.35-.44c.22-.29.38-.51.54-.74a13,13,0,0,0,.79-1.35c.06-.12.13-.24.18-.36l.13-.29.1-.24c.07-.19.11-.31.15-.43a8.77,8.77,0,0,0,.37-1.49l0-.16,0-.39c0-.38,0-.66,0-.94V4.15L10.3.93l-.92.28L.89,4.15v.07c0,.3,0,.52,0,.75v7.77c0,.48,0,.93,0,1.39,0,.14,0,.27,0,.42l0,.22c.05.26.1.51.16.76a7.25,7.25,0,0,0,.22.76c0,.14.08.26.12.37h0l.06.14.38.8c.12.23.24.45.37.67a13,13,0,0,0,.9,1.33l.18.23a2.48,2.48,0,0,0,.25.3c.17.21.35.41.53.6.36.38.75.76,1.16,1.13.2.18.41.35.62.52l.19.16Z"/><path d="M8.8,15.73a.45.45,0,0,1-.32-.12L4.93,12.05a.45.45,0,0,1,0-.63.41.41,0,0,1,.29-.12.47.47,0,0,1,.33.13l3.23,3.24,6.15-6.15a.42.42,0,0,1,.3-.12.5.5,0,0,1,.34.13.45.45,0,0,1,.12.28.49.49,0,0,1-.13.34L9.11,15.61A.43.43,0,0,1,8.8,15.73Z"/></g></g></svg>