<svg xmlns="http://www.w3.org/2000/svg" viewBox="0 0 29.29 29.71"><title>fully-managed</title><g id="Layer_2" data-name="Layer 2"><g id="Layer_2-2" data-name="Layer 2"><path d="M14.79,29.71A2.26,2.26,0,0,1,13.1,29l-.62-.67a1.41,1.41,0,0,0-1-.42A1.13,1.13,0,0,0,11,28l-.84.37a2.28,2.28,0,0,1-3-1.44l-.23-.85a1.27,1.27,0,0,0-1.19-.93l-.9-.05a2.31,2.31,0,0,1-1.65-.85,2.25,2.25,0,0,1-.46-1.76l.15-.91a1.33,1.33,0,0,0-.69-1.36l-.8-.43A2.33,2.33,0,0,1,.19,18.29a2.12,2.12,0,0,1,.33-1.8l.53-.72a1.39,1.39,0,0,0,0-1.54l-.63-.78a2.31,2.31,0,0,1-.37-1.81,2.16,2.16,0,0,1,1.09-1.46L2,9.75a1.25,1.25,0,0,0,.67-1.38l-.14-.89a2.06,2.06,0,0,1,.41-1.71,2.38,2.38,0,0,1,1.66-.86l.9,0a1.34,1.34,0,0,0,1.18-1L6.87,3A2.2,2.2,0,0,1,9,1.34a1.79,1.79,0,0,1,.82.16l.88.34a1.27,1.27,0,0,0,.47.09,1.34,1.34,0,0,0,1-.46l.62-.71A2.29,2.29,0,0,1,14.5,0a2.25,2.25,0,0,1,1.69.76l.63.67a1.39,1.39,0,0,0,1,.42,1.13,1.13,0,0,0,.51-.12l.85-.37A2.19,2.19,0,0,1,20,1.19,2.25,2.25,0,0,1,22.19,2.8l.24.85a1.25,1.25,0,0,0,1.19.93l.89,0a2.31,2.31,0,0,1,1.65.85,2.19,2.19,0,0,1,.46,1.75l-.15.92a1.34,1.34,0,0,0,.69,1.36l.8.43a2.38,2.38,0,0,1,1.15,1.48,2.12,2.12,0,0,1-.34,1.8l-.53.78a1.41,1.41,0,0,0,0,1.53l.65.69a2.32,2.32,0,0,1,.35,1.8,2.15,2.15,0,0,1-1.09,1.47l-.81.42a1.27,1.27,0,0,0-.67,1.38l.14.89A2.25,2.25,0,0,1,26.39,24a2.39,2.39,0,0,1-1.65.84l-.9,0a1.34,1.34,0,0,0-1.18,1l-.24.89a2.2,2.2,0,0,1-2.14,1.64,1.83,1.83,0,0,1-.83-.16l-.88-.34a1.27,1.27,0,0,0-.47-.09,1.34,1.34,0,0,0-1,.46l-.61.71A2.33,2.33,0,0,1,14.79,29.71ZM11.45,27a2.28,2.28,0,0,1,1.69.76l.62.67a1.44,1.44,0,0,0,1,.43,1.21,1.21,0,0,0,1-.45l.62-.7A2.29,2.29,0,0,1,18,26.91a1.81,1.81,0,0,1,.83.16l.93.35a1.24,1.24,0,0,0,1.72-.85l.24-.93a2.2,2.2,0,0,1,2-1.64l.91-.05a1.18,1.18,0,0,0,.93-.49,1.27,1.27,0,0,0,.25-1l-.14-.91a2.18,2.18,0,0,1,1.09-2.37l.81-.42A1.3,1.3,0,0,0,28,16.79l-.52-.74a2.29,2.29,0,0,1,0-2.63l.52-.76a1.54,1.54,0,0,0,.19-1,1.55,1.55,0,0,0-.66-.87l-.83-.44A2.22,2.22,0,0,1,25.58,8l.14-.91a1.28,1.28,0,0,0-1.25-1.53l-.89,0a2.2,2.2,0,0,1-2.07-1.59L21.28,3A1.27,1.27,0,0,0,20,2.08a1,1,0,0,0-.39.09l-.11,0-.86.39A2.33,2.33,0,0,1,16.11,2l-.63-.67a1.42,1.42,0,0,0-1-.43,1.23,1.23,0,0,0-1,.45L12.9,2a2.3,2.3,0,0,1-1.69.76,1.79,1.79,0,0,1-.82-.16L9.5,2.29A1.41,1.41,0,0,0,9,2.18a1.37,1.37,0,0,0-1.24,1l-.24.93a2.2,2.2,0,0,1-2,1.64l-.91,0a1.19,1.19,0,0,0-.93.49,1.27,1.27,0,0,0-.25,1l.14.91a2.19,2.19,0,0,1-1.13,2.36L1.63,11a1.3,1.3,0,0,0-.38,1.93l.51.74a2.3,2.3,0,0,1,0,2.63l-.52.76a1.53,1.53,0,0,0-.2,1,1.57,1.57,0,0,0,.67.87l.82.43a2.24,2.24,0,0,1,1.14,2.37l-.14.91a1.28,1.28,0,0,0,1.24,1.53l.89,0a2.2,2.2,0,0,1,2.07,1.59l.24.86a1.27,1.27,0,0,0,1.24.94,1.2,1.2,0,0,0,.38-.08l.11,0,.87-.39A2.23,2.23,0,0,1,11.45,27Zm3.2-3.41a8.68,8.68,0,1,1,8.67-8.67A8.68,8.68,0,0,1,14.65,23.55Zm0-16.41a7.74,7.74,0,1,0,7.73,7.74A7.75,7.75,0,0,0,14.65,7.14ZM13.6,17.3a.44.44,0,0,1-.32-.15l-1.72-1.67a.51.51,0,0,1,0-.7.47.47,0,0,1,.3-.11.55.55,0,0,1,.38.15l1.29,1.28,3.54-3.49a.44.44,0,0,1,.33-.13.57.57,0,0,1,.37.14.51.51,0,0,1,0,.68l-3.85,3.85A.43.43,0,0,1,13.6,17.3Z"/></g></g></svg>